Coordinates
version=1
nRows=14
nColumns=40
inDegrees=yes

Units are S.I. units (second, meters, Newtons, ...)
Angles are in degrees.

endheader
time	pelvis_tilt	pelvis_list	pelvis_rotation	pelvis_tx	pelvis_ty	pelvis_tz	hip_flexion_r	hip_adduction_r	hip_rotation_r	knee_angle_r	knee_angle_r_beta	ankle_angle_r	subtalar_angle_r	mtp_angle_r	hip_flexion_l	hip_adduction_l	hip_rotation_l	knee_angle_l	knee_angle_l_beta	ankle_angle_l	subtalar_angle_l	mtp_angle_l	lumbar_extension	lumbar_bending	lumbar_rotation	arm_flex_r	arm_add_r	arm_rot_r	elbow_flex_r	pro_sup_r	wrist_flex_r	wrist_dev_r	arm_flex_l	arm_add_l	arm_rot_l	elbow_flex_l	pro_sup_l	wrist_flex_l	wrist_dev_l
     35.80000000	     -3.43886972	     -5.43632912	     -2.52012751	      0.87195997	      0.92774483	      0.48985735	     13.58876051	      3.84249122	    -13.39389873	     19.62821902	     19.62821902	     10.83133665	      0.02173067	     -3.10486297	     27.20192459	    -13.13385166	      1.28978349	     69.85660790	     69.85660790	      1.72850749	    -16.75300123	      6.06297476	     -9.93236675	      7.19910636	      1.49771668	     12.86198943	    -16.93992443	      1.16295295	     60.07580795	     45.53754619	      0.00000000	      0.00000000	      6.14773555	     -7.79194149	     -7.09119773	     30.12506792	     45.46836205	      0.00000000	      0.00000000
     35.81364286	     -3.59390753	     -5.33340014	     -2.09438706	      0.87021327	      0.92826877	      0.49027670	     13.08121446	      3.80620029	    -13.58580493	     19.09289898	     19.09289898	     11.01849306	     -0.03370854	     -3.06762329	     29.14598788	    -12.88212527	      1.79984646	     69.01562931	     69.01562931	      2.07149356	    -17.29155755	      6.22678069	     -9.92486541	      7.01202730	      1.23215268	     15.02607160	    -16.94189263	      0.95943906	     62.04659485	     45.48602221	      0.00000000	      0.00000000	      4.99757424	     -7.60479628	     -6.95956746	     29.27488424	     45.44128660	      0.00000000	      0.00000000
     35.82728571	     -3.67971599	     -5.20038887	     -1.67966509	      0.86854438	      0.92885184	      0.49065541	     12.46707577	      3.74401004	    -13.77006474	     18.49876019	     18.49876019	     11.13569451	     -0.08555789	     -3.25076629	     30.87238365	    -12.60441883	      2.18097815	     67.89176278	     67.89176278	      2.67521062	    -17.55825348	      7.13815757	    -10.07631827	      6.81543989	      1.44698820	     16.37563201	    -17.67055495	      1.28862960	     66.02789332	     45.34190917	      0.00000000	      0.00000000	      4.15377290	     -7.34557866	     -6.50058292	     28.30676579	     45.40823098	      0.00000000	      0.00000000
     35.84092857	     -3.79590227	     -5.09427331	     -1.26790081	      0.86691356	      0.92938659	      0.49100672	     11.83473475	      3.74239220	    -13.89569376	     17.80338601	     17.80338601	     11.28456659	     -0.12975954	     -3.20437107	     32.45470532	    -12.31338029	      2.52406445	     66.36094533	     66.36094533	      3.04450045	    -17.89744654	      7.59809268	    -10.14577704	      6.63626776	      1.27409130	     18.51580111	    -17.67365586	      0.93492662	     68.11012391	     45.29464450	      0.00000000	      0.00000000	      3.04674257	     -7.21324769	     -6.28194858	     27.56990483	     45.36993011	      0.00000000	      0.00000000
     35.85457143	     -3.90588785	     -4.99266069	     -0.83867807	      0.86531283	      0.92988777	      0.49123473	     11.19384122	      3.73669711	    -14.05978705	     17.09070407	     17.09070407	     11.41790941	     -0.18314151	     -3.20430687	     33.84951510	    -11.99054261	      2.80563607	     64.38794490	     64.38794490	      3.49583515	    -18.11096207	      8.21373458	    -10.23640657	      6.46846201	      1.20362324	     20.46273188	    -17.77955575	      0.67668317	     70.43381347	     45.23571414	      0.00000000	      0.00000000	      2.01190566	     -7.06906475	     -6.03716591	     26.95998844	     45.32642360	      0.00000000	      0.00000000
     35.86821429	     -4.03247919	     -4.90984968	     -0.42623408	      0.86377244	      0.93026579	      0.49134248	     10.57064504	      3.75006855	    -14.21821929	     16.37106103	     16.37106103	     11.49311083	     -0.21463270	     -3.32796786	     35.08090363	    -11.66042958	      3.01256707	     61.98338696	     61.98338696	      4.07960245	    -18.15581672	      8.98473277	    -10.34276341	      6.33966524	      1.30283164	     22.14040958	    -18.08281020	      0.43832197	     73.21701541	     45.16169308	      0.00000000	      0.00000000	      1.06432505	     -6.93479011	     -5.66295781	     26.51044111	     45.26585616	      0.00000000	      0.00000000
     35.88185714	     -4.17791308	     -4.78186198	     -0.00534870	      0.86228773	      0.93055731	      0.49126558	      9.97486391	      3.70529044	    -14.37630651	     15.66677212	     15.66677212	     11.61082894	     -0.27115419	     -3.41935224	     36.08567274	    -11.20425911	      3.17421894	     59.04346858	     59.04346858	      4.59192944	    -18.23515759	      9.46200305	    -10.39527184	      6.15156062	      1.43152360	     23.85593474	    -18.30265074	      0.10710744	     75.45253505	     45.10940666	      0.00000000	      0.00000000	      0.16493532	     -6.82045147	     -5.35688798	     26.17416071	     45.21024372	      0.00000000	      0.00000000
     35.89550000	     -4.34947808	     -4.71004545	      0.43003665	      0.86084819	      0.93067895	      0.49103063	      9.41336139	      3.70693159	    -14.60582497	     14.96071746	     14.96071746	     11.56305619	     -0.29519163	     -3.94543575	     36.90876232	    -10.78854954	      3.27570358	     55.61390326	     55.61390326	      5.04836276	    -18.07410843	      9.63644091	    -10.49814926	      6.06820497	      1.89530100	     24.81685715	    -18.94361905	     -0.40253087	     79.06277046	     45.02347792	      0.00000000	      0.00000000	     -0.64376145	     -6.78735801	     -4.42847864	     26.29296492	     45.06751982	      0.00000000	      0.00000000
     35.90914286	     -4.52504622	     -4.58079941	      0.86907511	      0.85953380	      0.93065337	      0.49057698	      8.85794187	      3.63652125	    -14.74158534	     14.27436185	     14.27436185	     11.54285106	     -0.37852682	     -4.50172981	     37.42902372	    -10.22865925	      3.38591211	     51.63478811	     51.63478811	      5.18356373	    -17.92783580	      8.70197764	    -10.53352520	      5.90915700	      2.33648875	     26.05982077	    -19.29482416	     -1.29007776	     81.86018198	     44.99201936	      0.00000000	      0.00000000	     -1.47860752	     -6.86897831	     -2.64922740	     26.44022505	     44.81497250	      0.00000000	      0.00000000
     35.92278571	     -4.74917827	     -4.45643009	      1.28710601	      0.85828261	      0.93044078	      0.48998929	      8.44757498	      3.54155967	    -14.88216652	     13.79066930	     13.79066930	     11.76321786	     -0.46455041	     -4.51385629	     37.79469926	     -9.64384312	      3.45245956	     47.33900993	     47.33900993	      5.77658819	    -17.38030608	      8.89805206	    -10.43612253	      5.73515632	      2.38632705	     27.87362375	    -19.33968844	     -1.56262471	     83.20252167	     44.96759889	      0.00000000	      0.00000000	     -2.28781107	     -6.83007861	     -2.47611958	     26.19023737	     44.77993618	      0.00000000	      0.00000000
     35.93642857	     -4.88697471	     -4.46664185	      1.77534309	      0.85736856	      0.93013014	      0.48918026	      7.83962679	      3.57898741	    -15.30017355	     13.16350034	     13.16350034	     11.93307719	     -0.30335654	     -4.72440113	     37.83033159	     -9.13480106	      3.59143056	     42.68275388	     42.68275388	      5.99978641	    -16.78693081	      8.12324589	    -10.44281880	      5.81529580	      2.22891892	     29.35560682	    -19.27910460	     -1.71103534	     85.96892769	     44.90001160	      0.00000000	      0.00000000	     -3.34651877	     -6.87064693	     -1.90439592	     26.49991013	     44.68786832	      0.00000000	      0.00000000
     35.95007143	     -5.00639436	     -4.41538771	      2.20614202	      0.85655952	      0.92967231	      0.48833555	      7.34563029	      3.52402658	    -15.52453734	     12.79838018	     12.79838018	     12.09892470	     -0.22889287	     -5.16486000	     37.52883337	     -8.60831613	      3.62192619	     37.67736882	     37.67736882	      5.79628177	    -15.82893155	      6.35674514	    -10.54267105	      5.70090845	      2.62058640	     30.38591205	    -19.65967972	     -2.14098139	     88.59185463	     44.86399788	      0.00000000	      0.00000000	     -4.31276253	     -7.02743666	     -0.45585893	     27.38350586	     44.49812647	      0.00000000	      0.00000000
     35.96371429	     -5.19507624	     -4.41282492	      2.62426438	      0.85598299	      0.92891560	      0.48735829	      6.97088237	      3.51464091	    -15.70356726	     12.55477486	     12.55477486	     12.41602297	     -0.38352127	     -5.26292910	     37.26236527	     -8.13557240	      3.57590926	     32.92958203	     32.92958203	      6.43036185	    -14.31304822	      6.82479382	    -10.37697853	      5.66933675	      2.68990574	     31.98199087	    -19.65189745	     -2.33781108	     89.66173470	     44.84563024	      0.00000000	      0.00000000	     -4.98749680	     -6.96115805	     -0.30036676	     27.15733331	     44.47011478	      0.00000000	      0.00000000
     35.97735714	     -5.15357223	     -4.49610489	      3.03993458	      0.85586289	      0.92826850	      0.48634171	      6.29102314	      3.60863446	    -15.96559885	     12.27009721	     12.27009721	     12.77740208	     -0.33419092	     -5.40447603	     36.64520977	     -7.79658219	      3.39765027	     28.40642183	     28.40642183	      7.05107898	    -12.57434204	      7.45443338	    -10.47243547	      5.76204612	      2.53463395	     33.38880715	    -19.31449506	     -2.34328747	     91.40144426	     44.80234700	      0.00000000	      0.00000000	     -5.86097823	     -6.97437198	     -0.03741054	     27.10905568	     44.42809981	      0.00000000	      0.00000000
